<?xml version="1.0" encoding="utf-8"?>
<!-- Generator: Adobe Illustrator 24.0.1, SVG Export Plug-In . SVG Version: 6.00 Build 0)  -->
<svg version="1.1" id="Capa_1" xmlns="http://www.w3.org/2000/svg" xmlns:xlink="http://www.w3.org/1999/xlink" x="0px" y="0px"
	 viewBox="0 0 500 300" style="enable-background:new 0 0 500 300;" xml:space="preserve">
<style type="text/css">
	.st0{fill:#1E1E1E;}
	.st1{fill:#FFFFFF;}
	.st2{fill:#211E1F;}
</style>
<g>
	<g>
		<g>
			<path class="st0" d="M398.16,159.66c5.98,0,11.91-0.73,17.63-2.17c17.8-4.49,29.06-14.57,35.11-19.98
				c5.55-4.97,13.16-11.77,17.3-23.41c2.08-5.85,3.02-12.07,2.78-18.47c-0.11-3.03-1.92-5.75-4.67-7.02
				c-1.08-0.5-2.24-0.75-3.38-0.75c-1.78,0-3.54,0.59-4.99,1.73c-8.75,6.89-18.35,11.59-28.54,13.95c-4.8,1.11-9.28,1.61-14.52,1.61
				c-4.84,0-9.87-0.4-17-1.01c-11.2-0.96-17.92-2.47-23.85-3.8c-6.56-1.47-12.75-2.86-22.38-2.86c-1.23,0-2.53,0.02-3.84,0.07
				c-13.95,0.48-24.72,3.15-33.9,8.41c-3.32,1.9-11.1,6.36-17.36,15.62c-2.6,3.84-4.63,8.06-6.04,12.54
				c-0.89,2.83-0.15,5.92,1.92,8.05c1.54,1.58,3.63,2.44,5.78,2.44c0.74,0,1.48-0.1,2.21-0.31c1.86-0.53,3.77-1.01,5.67-1.42
				c0.09-0.02,9.38-1.97,20.15-1.97c3.29,0,6.39,0.18,9.23,0.54c7.04,0.89,9.88,2.51,14.18,4.96c4.25,2.43,9.54,5.45,19.39,8.31
				C375.81,156.68,386.06,159.66,398.16,159.66z"/>
			<path class="st1" d="M303.23,126.08c5.11-7.56,11.48-11.3,14.69-13.15c6.29-3.61,15.06-6.83,30.16-7.35
				c20.02-0.68,23.25,4.35,49.11,6.57c13.63,1.17,22.62,1.87,34.03-0.77c14.58-3.38,25.27-10.4,31.71-15.47
				c0.14,3.72-0.12,9.29-2.32,15.47c-3.39,9.51-9.45,15.07-15.08,20.11c-5.72,5.11-15.84,14.17-31.71,18.17
				c-17.81,4.49-32.88,0.1-42.54-2.71c-19.23-5.6-18.69-11.49-34.8-13.53c-15.67-1.99-32.1,1.55-32.1,1.55
				c-2.57,0.55-4.69,1.12-6.19,1.55C299.04,133.84,300.53,130.06,303.23,126.08z"/>
			<path class="st2" d="M343.27,115.91c7.17,1.55,14.23,3.52,21.22,5.71c3.5,1.07,6.96,2.27,10.43,3.45
				c3.45,1.21,6.88,2.5,10.3,3.68c3.41,1.23,6.78,2.29,10.26,2.74c1.74,0.24,3.51,0.37,5.28,0.39c1.77,0.01,3.54-0.07,5.32-0.24
				c3.54-0.38,7.07-1.1,10.52-2.17c3.47-1.02,6.85-2.38,10.2-3.87c-3.02,2.08-6.28,3.83-9.69,5.28c-1.7,0.73-3.47,1.31-5.25,1.88
				c-1.79,0.52-3.62,0.93-5.46,1.25c-3.7,0.63-7.49,0.73-11.26,0.36c-3.8-0.39-7.45-1.53-10.92-2.73
				c-6.92-2.52-13.67-5.16-20.5-7.76C356.89,121.25,350.06,118.66,343.27,115.91z"/>
			<path class="st0" d="M379.23,188.62c17.38,0,30.3-7.58,34.54-10.07c6.22-3.65,11.87-8.22,16.79-13.59
				c2.33-2.54,2.79-6.28,1.14-9.3c-1.43-2.63-4.16-4.21-7.08-4.21c-0.45,0-0.9,0.04-1.35,0.11c-5.56,0.94-11.01,1.42-16.2,1.42
				c-7.75,0-15.16-1.07-22.02-3.19c-9.21-2.83-21.07-8.59-27.44-11.68c-4.62-2.24-8.26-4.14-11.18-5.67
				c-7.66-4.01-12.29-6.42-19.07-6.42c-0.3,0-0.6,0-0.91,0.01c-10.95,0.34-21.49,6.64-31.34,18.73c-1.94,2.39-2.36,5.67-1.08,8.46
				c1.29,2.8,4.05,4.62,7.13,4.69c6.48,0.16,12.59,1.45,18.17,3.83c4.48,1.91,6.91,3.8,10.28,6.42c1.76,1.37,3.75,2.91,6.25,4.63
				c6.9,4.74,21.24,14.59,39.84,15.71C376.86,188.58,378.05,188.62,379.23,188.62z"/>
			<path class="st1" d="M424.62,159.5c-3.12,3.4-8.01,8.03-14.93,12.09c-4.5,2.64-17.16,9.86-33.52,8.87
				c-16.36-0.99-29.09-9.73-35.75-14.31c-7.13-4.9-9.9-8.39-17.92-11.82c-8.31-3.55-15.98-4.35-21.14-4.48
				c10.6-13.01,19.52-15.58,25.34-15.76c7.21-0.22,10.72,3.19,27.38,11.27c6.81,3.3,18.79,9.11,28.59,12.13
				C391.81,160.31,405.64,162.72,424.62,159.5z"/>
			<path class="st0" d="M350.26,208.55c10.85,0,19.35-2.74,22.55-3.77c6.86-2.21,13.37-5.44,19.34-9.61
				c2.83-1.97,4.09-5.52,3.14-8.83c-0.95-3.31-3.9-5.66-7.34-5.84c-14.09-0.73-26.51-4.11-36.93-10.04
				c-8.37-4.77-18.7-12.96-24.24-17.37c-4.03-3.2-7.16-5.84-9.68-7.97c-6.83-5.76-10.95-9.24-18.1-10.6
				c-1.86-0.35-3.78-0.53-5.69-0.53c-9.13,0-18.88,4.04-28.98,12c-2.42,1.91-3.54,5.02-2.89,8.03c0.65,3.01,2.95,5.39,5.94,6.13
				c6.29,1.57,11.97,4.15,16.9,7.69c3.95,2.84,5.92,5.21,8.63,8.5c1.42,1.72,3.03,3.66,5.09,5.88c5.7,6.12,17.56,18.86,35.46,24
				C338.84,207.77,344.49,208.55,350.26,208.55L350.26,208.55z"/>
			<path class="st2" d="M333.95,142.08c3.9,2.46,7.71,4.93,11.62,7.23c3.89,2.31,7.83,4.51,11.85,6.56
				c4.02,2.05,8.1,3.97,12.26,5.76c4.15,1.81,8.39,3.46,12.66,5.18c-4.59-0.49-9.1-1.55-13.5-2.94c-4.4-1.41-8.69-3.19-12.81-5.29
				c-4.12-2.1-8.07-4.55-11.79-7.28C340.53,148.54,337.03,145.51,333.95,142.08z"/>
			<path class="st1" d="M387.54,188.56c-3.78,2.64-9.57,6.09-17.2,8.55c-4.97,1.6-18.89,5.89-34.64,1.37
				c-15.75-4.52-26.27-15.83-31.78-21.75c-5.89-6.33-7.84-10.34-14.92-15.43c-7.34-5.27-14.65-7.72-19.66-8.97
				c13.17-10.39,22.44-10.96,28.17-9.87c7.09,1.35,9.77,5.44,24.28,16.96c5.93,4.71,16.36,12.98,25.27,18.06
				C355.34,182.21,368.31,187.57,387.54,188.56z"/>
			<path class="st2" d="M315.31,167.17c3.06,1.63,5.98,3.37,8.92,5.07c2.93,1.71,5.85,3.39,8.78,5.05c2.94,1.66,5.88,3.29,8.85,4.92
				c2.97,1.64,5.96,3.25,8.93,5.04c-3.42-0.6-6.73-1.62-9.95-2.86c-3.22-1.25-6.34-2.74-9.34-4.44c-3-1.7-5.89-3.61-8.62-5.72
				C320.17,172.09,317.58,169.79,315.31,167.17z"/>
		</g>
		<g>
			<path class="st0" d="M102.39,159.66c-5.98,0-11.91-0.73-17.63-2.17c-17.8-4.49-29.06-14.57-35.11-19.98
				c-5.55-4.97-13.16-11.77-17.3-23.41c-2.08-5.85-3.02-12.07-2.78-18.47c0.11-3.03,1.92-5.75,4.67-7.02
				c1.08-0.5,2.24-0.75,3.38-0.75c1.78,0,3.54,0.59,4.99,1.73c8.75,6.89,18.35,11.59,28.54,13.95c4.8,1.11,9.28,1.61,14.52,1.61
				c4.84,0,9.87-0.4,17-1.01c11.2-0.96,17.92-2.47,23.85-3.8c6.56-1.47,12.75-2.86,22.38-2.86c1.23,0,2.53,0.02,3.84,0.07
				c13.95,0.48,24.72,3.15,33.9,8.41c3.32,1.9,11.1,6.36,17.36,15.62c2.6,3.84,4.63,8.06,6.04,12.54c0.89,2.83,0.15,5.92-1.92,8.05
				c-1.54,1.58-3.63,2.44-5.78,2.44c-0.74,0-1.48-0.1-2.21-0.31c-1.86-0.53-3.77-1.01-5.67-1.42c-0.09-0.02-9.38-1.97-20.15-1.97
				c-3.29,0-6.39,0.18-9.23,0.54c-7.04,0.89-9.88,2.51-14.18,4.96c-4.25,2.43-9.54,5.45-19.39,8.31
				C124.74,156.68,114.49,159.66,102.39,159.66z"/>
			<path class="st1" d="M197.33,126.08c-5.11-7.56-11.48-11.3-14.69-13.15c-6.29-3.61-15.06-6.83-30.16-7.35
				c-20.02-0.68-23.25,4.35-49.11,6.57c-13.63,1.17-22.62,1.87-34.03-0.77c-14.58-3.38-25.27-10.4-31.71-15.47
				c-0.14,3.72,0.12,9.29,2.32,15.47c3.39,9.51,9.45,15.07,15.08,20.11c5.72,5.11,15.84,14.17,31.71,18.17
				c17.81,4.49,32.88,0.1,42.54-2.71c19.23-5.6,18.69-11.49,34.8-13.53c15.67-1.99,32.1,1.55,32.1,1.55
				c2.57,0.55,4.69,1.12,6.19,1.55C201.51,133.84,200.02,130.06,197.33,126.08z"/>
			<path class="st2" d="M157.29,115.91c-6.8,2.75-13.62,5.34-20.44,7.94c-6.83,2.6-13.58,5.25-20.5,7.76
				c-3.47,1.19-7.12,2.33-10.92,2.73c-3.77,0.37-7.56,0.27-11.26-0.36c-1.85-0.32-3.67-0.73-5.46-1.25
				c-1.78-0.56-3.54-1.14-5.25-1.88c-3.41-1.45-6.67-3.19-9.69-5.28c3.35,1.49,6.73,2.85,10.2,3.87c3.45,1.07,6.98,1.79,10.52,2.17
				c1.77,0.16,3.55,0.25,5.32,0.24c1.77-0.02,3.54-0.14,5.28-0.39c3.47-0.44,6.85-1.51,10.26-2.74c3.42-1.18,6.85-2.47,10.3-3.68
				c3.46-1.18,6.92-2.38,10.43-3.45C143.06,119.43,150.12,117.46,157.29,115.91z"/>
			<path class="st0" d="M121.33,188.62c-17.38,0-30.3-7.58-34.54-10.07c-6.22-3.65-11.87-8.22-16.79-13.59
				c-2.33-2.54-2.79-6.28-1.14-9.3c1.43-2.63,4.17-4.21,7.08-4.21c0.45,0,0.9,0.04,1.35,0.11c5.56,0.94,11.01,1.42,16.2,1.42
				c7.75,0,15.16-1.07,22.02-3.19c9.21-2.83,21.07-8.59,27.44-11.68c4.62-2.24,8.26-4.14,11.18-5.67
				c7.66-4.01,12.29-6.42,19.07-6.42c0.3,0,0.6,0,0.91,0.01c10.95,0.34,21.49,6.64,31.34,18.73c1.94,2.39,2.36,5.67,1.08,8.46
				c-1.29,2.8-4.05,4.62-7.13,4.69c-6.48,0.16-12.59,1.45-18.17,3.83c-4.48,1.91-6.91,3.8-10.28,6.42
				c-1.76,1.37-3.75,2.91-6.25,4.63c-6.9,4.74-21.24,14.59-39.84,15.71C123.69,188.58,122.5,188.62,121.33,188.62z"/>
			<path class="st1" d="M75.93,159.5c3.12,3.4,8.01,8.03,14.93,12.09c4.5,2.64,17.16,9.86,33.52,8.87
				c16.36-0.99,29.09-9.73,35.75-14.31c7.13-4.9,9.9-8.39,17.92-11.82c8.31-3.55,15.98-4.35,21.14-4.48
				c-10.6-13.01-19.52-15.58-25.34-15.76c-7.21-0.22-10.72,3.19-27.38,11.27c-6.81,3.3-18.79,9.11-28.59,12.13
				C108.74,160.31,94.92,162.72,75.93,159.5z"/>
			<path class="st0" d="M150.29,208.55c-10.85,0-19.35-2.74-22.55-3.77c-6.86-2.21-13.37-5.44-19.34-9.61
				c-2.83-1.97-4.09-5.52-3.14-8.83c0.95-3.31,3.9-5.66,7.34-5.84c14.09-0.73,26.51-4.11,36.93-10.04
				c8.37-4.77,18.7-12.96,24.24-17.37c4.03-3.2,7.16-5.84,9.68-7.97c6.83-5.76,10.95-9.24,18.1-10.6c1.86-0.35,3.78-0.53,5.69-0.53
				c9.13,0,18.88,4.04,28.98,12c2.42,1.91,3.54,5.02,2.89,8.03c-0.65,3.01-2.95,5.39-5.94,6.13c-6.29,1.57-11.97,4.15-16.9,7.69
				c-3.95,2.84-5.92,5.21-8.63,8.5c-1.42,1.72-3.03,3.66-5.09,5.88c-5.7,6.12-17.56,18.86-35.46,24
				C161.71,207.77,156.06,208.55,150.29,208.55L150.29,208.55z"/>
			<path class="st2" d="M166.6,142.08c-3.09,3.43-6.59,6.46-10.29,9.22c-3.72,2.74-7.67,5.18-11.79,7.28
				c-4.12,2.11-8.41,3.89-12.81,5.29c-4.4,1.39-8.91,2.45-13.5,2.94c4.28-1.73,8.51-3.37,12.66-5.18c4.16-1.79,8.24-3.71,12.26-5.76
				c4.02-2.04,7.96-4.24,11.85-6.56C158.89,147,162.7,144.53,166.6,142.08z"/>
			<path class="st1" d="M113.02,188.56c3.78,2.64,9.57,6.09,17.2,8.55c4.97,1.6,18.89,5.89,34.64,1.37
				c15.75-4.52,26.27-15.83,31.78-21.75c5.89-6.33,7.84-10.34,14.92-15.43c7.34-5.27,14.65-7.72,19.66-8.97
				c-13.17-10.39-22.44-10.96-28.17-9.87c-7.09,1.35-9.77,5.44-24.28,16.96c-5.93,4.71-16.36,12.98-25.27,18.06
				C145.21,182.21,132.24,187.57,113.02,188.56z"/>
			<path class="st2" d="M185.24,167.17c-2.28,2.62-4.86,4.92-7.58,7.05c-2.73,2.11-5.62,4.02-8.62,5.72c-3,1.7-6.13,3.19-9.34,4.44
				c-3.22,1.24-6.53,2.26-9.95,2.86c2.97-1.79,5.97-3.39,8.93-5.04c2.97-1.63,5.92-3.26,8.85-4.92c2.93-1.66,5.85-3.34,8.78-5.05
				C179.26,170.54,182.18,168.8,185.24,167.17z"/>
		</g>
	</g>
	<g>
		<path class="st1" d="M235.16,233.07L155.64,97.33c-6.84-11.68,1.58-26.37,15.12-26.37h159.03c13.54,0,21.96,14.7,15.12,26.37
			l-79.52,135.74C258.63,244.63,241.93,244.63,235.16,233.07z"/>
		<path class="st0" d="M329.79,70.96c13.54,0,21.96,14.7,15.12,26.37l-79.52,135.74c-3.38,5.78-9.25,8.66-15.12,8.66
			c-5.87,0-11.73-2.89-15.12-8.66L155.64,97.33c-6.84-11.68,1.58-26.37,15.12-26.37H329.79L329.79,70.96z M329.79,66.39H170.76
			c-8.02,0-15.18,4.15-19.17,11.11c-3.99,6.95-3.95,15.24,0.1,22.15l79.52,135.74c4.01,6.84,11.13,10.93,19.06,10.93
			c7.93,0,15.05-4.08,19.06-10.93l79.52-135.74c4.05-6.92,4.09-15.2,0.11-22.15C344.97,70.54,337.81,66.39,329.79,66.39
			L329.79,66.39z"/>
	</g>
	<g>
		<path class="st0" d="M257.87,193.64l-7.6-29.31l-7.6,29.31l0.93-30.28l-15.6,26.02l9.48-28.81l-22.26,20.52l17.15-24.93
			l-27.14,13.46l23.5-19.13l-29.89,5.26l27.99-11.71l-30.05-3.38l30.05-3.38l-27.99-11.71l29.89,5.26l-23.5-19.13l27.14,13.46
			l-17.15-24.94l22.26,20.52l-9.48-28.81l15.6,26.03l-0.93-30.28l7.6,29.31l7.6-29.31l-0.93,30.28l15.6-26.02l-9.48,28.81
			l22.26-20.52l-17.15,24.93l27.14-13.46l-23.5,19.13l29.89-5.26l-27.99,11.71l30.05,3.38l-30.05,3.38l27.99,11.71l-29.89-5.26
			l23.5,19.13l-27.14-13.46l17.15,24.93l-22.26-20.52l9.48,28.81l-15.6-26.03L257.87,193.64z M246.16,154.65l-0.57,18.66l4.69-18.09
			l4.69,18.09l-0.57-18.66l9.57,15.97l-5.82-17.7l13.75,12.67l-10.6-15.41l16.73,8.3l-14.47-11.78l18.33,3.23l-17.18-7.19
			l18.61-2.09l-18.61-2.09l17.18-7.19l-18.33,3.23l14.47-11.78l-16.73,8.3l10.6-15.41l-13.75,12.67l5.82-17.7l-9.57,15.97
			l0.57-18.66l-4.69,18.09l-4.69-18.09l0.57,18.66l-9.57-15.97l5.82,17.7l-13.75-12.67l10.6,15.41l-16.73-8.3L237,134.59
			l-18.33-3.23l17.18,7.19l-18.61,2.09l18.61,2.09l-17.18,7.19L237,146.7l-14.47,11.78l16.73-8.3l-10.6,15.41l13.75-12.67
			l-5.82,17.7L246.16,154.65z"/>
		<path class="st0" d="M337.14,124.36l-5.99-9.99l-1.03-11.62c-4.73-9.94-11.26-18.86-19.17-26.34l-10.71-4.55l-7.65-8.81
			c-9.41-5.14-19.86-8.62-30.95-10.05l-11.37,2.63L238.91,53c-11.09,1.42-21.54,4.91-30.95,10.05l-7.65,8.81l-10.71,4.55
			c-7.91,7.48-14.44,16.4-19.17,26.34l-1.03,11.62l-5.99,9.99c-0.98,5.28-1.5,10.72-1.5,16.29c0,5.57,0.52,11.01,1.5,16.29
			l5.99,9.99l1.03,11.62c4.73,9.94,11.26,18.86,19.17,26.34l10.71,4.55l7.65,8.81c9.41,5.14,19.86,8.62,30.95,10.05l11.37-2.63
			l11.37,2.63c11.09-1.42,21.54-4.91,30.95-10.05l7.65-8.81l10.71-4.55c7.91-7.48,14.44-16.4,19.17-26.34l1.03-11.62l5.99-9.99
			c0.98-5.28,1.5-10.72,1.5-16.29C338.65,135.08,338.13,129.64,337.14,124.36z M250.28,183.47c-23.65,0-42.82-19.17-42.82-42.82
			c0-23.65,19.17-42.82,42.82-42.82c23.65,0,42.82,19.17,42.82,42.82C293.1,164.3,273.93,183.47,250.28,183.47z"/>
		<g>
			<path class="st1" d="M311.12,115.46c-5.35-11.79-14.07-21.85-24.76-28.81c-10.69-6.97-23.37-10.73-36.08-10.7
				c-12.72-0.02-25.39,3.74-36.08,10.71c-10.69,6.96-19.41,17.02-24.76,28.8l1.87-4.48l2.24-4.32l2.55-4.15
				c0.95-1.32,1.88-2.65,2.86-3.96c4.04-5.12,8.85-9.66,14.25-13.36c5.39-3.73,11.38-6.6,17.64-8.56
				c6.28-1.94,12.85-2.92,19.43-2.95c6.57,0.03,13.15,1,19.43,2.95c6.27,1.96,12.26,4.83,17.64,8.56
				c5.4,3.71,10.22,8.24,14.25,13.36c0.97,1.31,1.91,2.64,2.86,3.96l2.56,4.15l2.24,4.32L311.12,115.46z"/>
			<path class="st1" d="M190.49,168.24c5.64,11.16,14.33,20.6,24.79,27.11c10.46,6.52,22.71,10.02,35,9.99
				c12.28,0.02,24.53-3.48,34.99-10c10.46-6.51,19.15-15.94,24.79-27.1l-1.97,4.26l-2.31,4.1c-0.87,1.31-1.72,2.63-2.6,3.93
				c-0.96,1.24-1.9,2.51-2.88,3.74c-4.04,4.83-8.79,9.1-14.08,12.57c-5.27,3.51-11.1,6.19-17.17,8.03
				c-6.08,1.82-12.44,2.72-18.79,2.75c-6.35-0.03-12.7-0.94-18.79-2.76c-6.07-1.84-11.9-4.52-17.17-8.03
				c-5.29-3.48-10.04-7.74-14.08-12.57c-0.98-1.23-1.92-2.5-2.88-3.74c-0.88-1.3-1.73-2.62-2.6-3.93l-2.31-4.1L190.49,168.24z"/>
		</g>
		<path class="st1" d="M250.28,187.66c-25.92,0-47.01-21.09-47.01-47.01s21.09-47.01,47.01-47.01s47.01,21.09,47.01,47.01
			S276.2,187.66,250.28,187.66z M250.28,94.39c-25.5,0-46.25,20.75-46.25,46.25s20.75,46.25,46.25,46.25s46.25-20.75,46.25-46.25
			S275.78,94.39,250.28,94.39z"/>
		
			<ellipse transform="matrix(0.9239 -0.3827 0.3827 0.9239 -34.7719 106.4824)" class="st2" cx="250.28" cy="140.65" rx="18.49" ry="18.49"/>
		
			<ellipse transform="matrix(0.2298 -0.9732 0.9732 0.2298 55.8906 351.9132)" class="st1" cx="250.28" cy="140.65" rx="11.49" ry="11.49"/>
		<path class="st1" d="M322.16,125.54c-3.82-16.28-13.24-30.97-26.17-41.22c-12.89-10.31-29.27-16.04-45.72-15.97
			c-16.45-0.07-32.83,5.67-45.72,15.97c-12.92,10.25-22.35,24.95-26.17,41.22l0.62-3.07l0.76-3.04l0.91-3.01l1.04-2.97
			c1.47-3.93,3.27-7.73,5.39-11.37c4.27-7.25,9.82-13.77,16.33-19.15c6.49-5.41,13.96-9.65,21.92-12.53
			c7.97-2.87,16.45-4.32,24.92-4.34c8.47,0.03,16.95,1.47,24.92,4.34c7.96,2.89,15.43,7.12,21.92,12.53
			c6.51,5.38,12.06,11.9,16.33,19.15c2.12,3.63,3.93,7.44,5.39,11.37l1.04,2.97l0.91,3.01l0.76,3.04L322.16,125.54z"/>
		<path class="st1" d="M250.28,92.29c26.66,0,48.35,21.69,48.35,48.35S276.94,189,250.28,189s-48.35-21.69-48.35-48.35
			S223.61,92.29,250.28,92.29L250.28,92.29z M250.28,88.48c-28.81,0-52.16,23.35-52.16,52.16s23.35,52.16,52.16,52.16
			s52.16-23.35,52.16-52.16S279.08,88.48,250.28,88.48L250.28,88.48z"/>
	</g>
</g>
</svg>
