<?xml version="1.0" encoding="utf-8"?>
<!-- Generator: Adobe Illustrator 24.0.1, SVG Export Plug-In . SVG Version: 6.00 Build 0)  -->
<svg version="1.1" id="Capa_1" xmlns="http://www.w3.org/2000/svg" xmlns:xlink="http://www.w3.org/1999/xlink" x="0px" y="0px"
	 viewBox="0 0 1920 1080" style="enable-background:new 0 0 1920 1080;" xml:space="preserve">
<style type="text/css">
	.st0{fill:none;stroke:#D9D9D9;stroke-width:3;stroke-miterlimit:10;}
	.st1{fill:none;stroke:#D9D9D9;stroke-width:2.8182;stroke-miterlimit:10;}
	.st2{fill:none;stroke:#D9D9D9;stroke-width:2.6364;stroke-miterlimit:10;}
	.st3{fill:none;stroke:#D9D9D9;stroke-width:2.4545;stroke-miterlimit:10;}
	.st4{fill:none;stroke:#D9D9D9;stroke-width:2.2727;stroke-miterlimit:10;}
	.st5{fill:none;stroke:#D9D9D9;stroke-width:2.0909;stroke-miterlimit:10;}
	.st6{fill:none;stroke:#D9D9D9;stroke-width:1.9091;stroke-miterlimit:10;}
	.st7{fill:none;stroke:#D9D9D9;stroke-width:1.7273;stroke-miterlimit:10;}
	.st8{fill:none;stroke:#D9D9D9;stroke-width:1.5455;stroke-miterlimit:10;}
	.st9{fill:none;stroke:#D9D9D9;stroke-width:1.3636;stroke-miterlimit:10;}
	.st10{fill:none;stroke:#D9D9D9;stroke-width:1.1818;stroke-miterlimit:10;}
	.st11{fill:none;stroke:#D9D9D9;stroke-miterlimit:10;}
</style>
<g>
	<path class="st0" d="M-111.5,69.5c0,0-93,38,74,121s452,34,517,214s-136,260-178,381s-25,254,87,358"/>
	<path class="st1" d="M-127.7,77.1c0,0-82,38.2,72.2,121.3C60.7,261,235.8,263.1,348.7,324.5c41.1,22.5,73,53.4,90.2,99
		c44.9,117.5-27.4,193.4-91.4,266.3c-30.7,34.8-58.5,70-70.6,109c-36.1,117.1-16.1,245.1,97.1,343.2"/>
	<path class="st2" d="M-143.9,84.6c0,0-71.1,38.6,70.5,121.6c109.6,64.3,273.4,78.7,383,139.9c40.4,22.7,71.4,53,88.7,96.4
		c45.5,113.8-21.4,189.6-81.7,261.6c-28.7,34.2-53.9,69.3-64.2,108c-30.3,113-7.1,236.3,107.2,328.3"/>
	<path class="st3" d="M-160.1,92.1c0,0-60.1,39.2,68.7,122c103.1,66.2,255.5,92.7,362,153.6c39.6,22.9,69.8,52.6,87.1,93.8
		c46.4,110.1-15.4,185.7-72.1,256.9c-26.7,33.5-49.2,68.6-57.9,107.1c-24.6,108.9,1.8,227.4,117.4,313.5"/>
	<path class="st4" d="M-176.2,99.7c0,0-49.3,40.1,67,122.3c96.5,68.2,237.8,106.4,340.9,167.3c38.9,23,68.2,52.2,85.5,91.2
		c47.3,106.2-9.5,181.8-62.4,252.1c-24.7,32.8-44.6,67.9-51.6,106.1c-19.1,104.7,10.7,218.5,127.5,298.6"/>
	<path class="st5" d="M-192.4,107.2c0,0-38.5,41.3,65.2,122.6c89.9,70.5,219.9,120.4,319.8,181.1c38.2,23.2,66.6,51.7,84,88.6
		c48.2,102.4-3.5,177.9-52.7,247.4C201.2,779,183.8,814,178.6,852c-13.8,100.5,19.6,209.6,137.6,283.8"/>
	<path class="st6" d="M-208.6,114.8c0,0-27.9,42.9,63.5,122.9c83.3,73,202.1,134.4,298.7,194.8c37.4,23.4,65.1,51.3,82.4,86
		c49.2,98.6,2.4,173.9-43,242.7c-20.8,31.5-35.6,66.4-38.9,104.1c-8.6,96.2,28.6,200.8,147.7,268.9"/>
	<path class="st7" d="M-224.8,122.3c0,0-17.5,44.7,61.7,123.3c76.4,75.7,184.2,148.4,277.6,208.5c36.7,23.6,63.6,50.8,80.8,83.3
		c50.3,94.7,8.3,170-33.3,238c-18.8,30.7-31.2,65.7-32.6,103.2c-3.6,91.9,37.5,191.9,157.9,254.1"/>
	<path class="st8" d="M-240.9,129.9c0,0-7.5,46.9,59.9,123.6c69.3,78.8,166.3,162.4,256.6,222.3c35.9,23.8,62.1,50.4,79.3,80.7
		c51.4,90.8,14.1,166-23.6,233.3c-16.8,30-26.8,64.9-26.3,102.2c1.3,87.6,46.4,183,168,239.3"/>
	<path class="st9" d="M-257.1,137.4c0,0,2.2,49.4,58.2,123.9c61.7,82.1,148.3,176.6,235.5,236c35.1,24.1,60.6,49.9,77.7,78.1
		c52.6,86.9,20,162-13.9,228.5c-14.9,29.3-22.6,64.2-20,101.2c5.9,83.3,55.3,174.1,178.1,224.4"/>
	<path class="st10" d="M-273.3,144.9c0,0,11.4,51.9,56.4,124.2c53.4,85.8,130.4,190.6,214.4,249.7c34.4,24.3,59.2,49.4,76.2,75.5
		c53.8,82.9,25.8,158-4.3,223.8c-13,28.5-18.5,63.4-13.7,100.2c10.3,79.1,64.3,165.3,188.2,209.6"/>
	<path class="st11" d="M-289.5,152.5c0,0,104,283,248,388s114,207,80,292s5,237,191,294"/>
</g>
<g>
	<path class="st11" d="M1307.5,1126.5c0,0,58-557,440-652s246-667,246-667"/>
	<path class="st10" d="M2001.4-125.9c0,0,108,530.2-248.3,628.3c-352.7,97.1-408.3,613.2-399.8,625.6"/>
	<path class="st9" d="M2009.3-59.2c0,0,80.1,488.2-250.6,589.5c-323.4,99-376.6,574.4-359.6,599.3"/>
	<path class="st8" d="M2017.2,7.4c0,0,52.3,446.1-252.9,550.8c-294,100.8-344.9,535.6-319.3,572.9"/>
	<path class="st7" d="M2025.1,74.1c0,0,24.6,403.8-255.2,512.1c-264.6,102.3-313.2,496.9-279.1,546.6"/>
	<path class="st6" d="M2033.1,140.7c0,0-3.1,361.3-257.6,473.3c-235.2,103.6-281.5,458.1-238.9,520.2"/>
	<path class="st5" d="M2040.9,207.3c0,0-30.8,318.4-259.9,434.6c-205.8,104.4-249.8,419.3-198.7,493.9"/>
	<path class="st4" d="M2048.9,274c0,0-58.5,275-262.2,395.9c-176.5,104.7-218.1,380.5-158.5,467.5"/>
	<path class="st3" d="M2056.8,340.6c0,0-86.5,230.9-264.5,357.1c-147.4,104.5-186.4,341.7-118.3,441.2"/>
	<path class="st2" d="M2064.7,407.2c0,0-115,186.1-266.8,318.4c-118.8,103.6-154.7,302.9-78,414.8"/>
	<path class="st1" d="M2072.6,473.9c0,0-144.8,140.4-269.1,279.7c-91.1,102.1-123,264.1-37.8,388.4"/>
	<path class="st0" d="M2080.5,540.5c0,0-500,266-269,603"/>
</g>
</svg>
